HIERARCHY
ROOT Hips
{
  OFFSET -43.3411 73.6987 0
  CHANNELS 6 Xposition Yposition Zposition Zrotation Xrotation Yrotation
  JOINT Bip01_Pelvis
  {
    OFFSET 0 0 0
    CHANNELS 6 Xposition Yposition Zposition Zrotation Xrotation Yrotation
    JOINT BN_Tail_01
    {
      OFFSET -18.6385 -9.591 -2.032e-005
      CHANNELS 6 Xposition Yposition Zposition Zrotation Xrotation Yrotation
      JOINT BN_Tail_02
      {
        OFFSET 20.9743 0 0
        CHANNELS 6 Xposition Yposition Zposition Zrotation Xrotation Yrotation
        JOINT BN_Tail_03
        {
          OFFSET 20.3015 0 0
          CHANNELS 6 Xposition Yposition Zposition Zrotation Xrotation Yrotation
          JOINT BN_Tail_04
          {
            OFFSET 21.6394 -9.91821e-005 0
            CHANNELS 6 Xposition Yposition Zposition Zrotation Xrotation Yrotation
            End Site
            {
              OFFSET 0 0 0
            }
          }
        }
      }
    }
    JOINT Bip01_Spine
    {
      OFFSET 22.1878 -0.659386 3.048e-005
      CHANNELS 6 Xposition Yposition Zposition Zrotation Xrotation Yrotation
      JOINT Bip01_R_Thigh
      {
        OFFSET -22.1873 0.677109 -17.1024
        CHANNELS 6 Xposition Yposition Zposition Zrotation Xrotation Yrotation
        JOINT Bip01_R_Calf
        {
          OFFSET 34.2647 0 0
          CHANNELS 6 Xposition Yposition Zposition Zrotation Xrotation Yrotation
          JOINT Bip01_R_HorseLink
          {
            OFFSET 20.4429 0 0
            CHANNELS 6 Xposition Yposition Zposition Zrotation Xrotation Yrotation
            JOINT Bip01_R_Foot
            {
              OFFSET 16.5673 0 0
              CHANNELS 6 Xposition Yposition Zposition Zrotation Xrotation Yrotation
              JOINT Bip01_R_Toe0
              {
                OFFSET 9.18784 6.94841 0
                CHANNELS 6 Xposition Yposition Zposition Zrotation Xrotation Yrotation
                JOINT Bip01_R_Toe0Nub
                {
                  OFFSET 1.01907 0 0
                  CHANNELS 6 Xposition Yposition Zposition Zrotation Xrotation Yrotation
                  End Site
                  {
                    OFFSET 0 0 0
                  }
                }
              }
            }
          }
        }
      }
      JOINT Bip01_L_Thigh
      {
        OFFSET -22.1873 0.67701 17.1024
        CHANNELS 6 Xposition Yposition Zposition Zrotation Xrotation Yrotation
        JOINT Bip01_L_Calf
        {
          OFFSET 34.2647 0 0
          CHANNELS 6 Xposition Yposition Zposition Zrotation Xrotation Yrotation
          JOINT Bip01_L_HorseLink
          {
            OFFSET 20.4429 0 0
            CHANNELS 6 Xposition Yposition Zposition Zrotation Xrotation Yrotation
            JOINT Bip01_L_Foot
            {
              OFFSET 16.5673 0 0
              CHANNELS 6 Xposition Yposition Zposition Zrotation Xrotation Yrotation
              JOINT Bip01_L_Toe0
              {
                OFFSET 9.18784 6.9484 1.14441e-005
                CHANNELS 6 Xposition Yposition Zposition Zrotation Xrotation Yrotation
                JOINT Bip01_L_Toe0Nub
                {
                  OFFSET 1.01907 0 0
                  CHANNELS 6 Xposition Yposition Zposition Zrotation Xrotation Yrotation
                  End Site
                  {
                    OFFSET 0 0 0
                  }
                }
              }
            }
          }
        }
      }
      JOINT Bip01_Spine1
      {
        OFFSET 39.3372 -0.0249863 0
        CHANNELS 6 Xposition Yposition Zposition Zrotation Xrotation Yrotation
        JOINT Bip01_Neck
        {
          OFFSET 34.2837 -15.5934 -4.318e-005
          CHANNELS 6 Xposition Yposition Zposition Zrotation Xrotation Yrotation
          JOINT Bip01_R_Clavicle
          {
            OFFSET -17.9452 -11.3131 -6.19287
            CHANNELS 6 Xposition Yposition Zposition Zrotation Xrotation Yrotation
            JOINT Bip01_R_UpperArm
            {
              OFFSET 17.4439 1.52588e-005 -2.28882e-005
              CHANNELS 6 Xposition Yposition Zposition Zrotation Xrotation Yrotation
              JOINT Bip01_R_Forearm
              {
                OFFSET 30.6251 1.14441e-005 0
                CHANNELS 6 Xposition Yposition Zposition Zrotation Xrotation Yrotation
                JOINT Bip01_R_Hand
                {
                  OFFSET 31.2039 0 0
                  CHANNELS 6 Xposition Yposition Zposition Zrotation Xrotation Yrotation
                  JOINT Bip01_R_Finger0
                  {
                    OFFSET 22.1039 0.255862 -0.37902
                    CHANNELS 6 Xposition Yposition Zposition Zrotation Xrotation Yrotation
                    JOINT Bip01_R_Finger0Nub
                    {
                      OFFSET 12.0552 0 0
                      CHANNELS 6 Xposition Yposition Zposition Zrotation Xrotation Yrotation
                      End Site
                      {
                        OFFSET 0 0 0
                      }
                    }
                  }
                }
              }
            }
          }
          JOINT Bip01_L_Clavicle
          {
            OFFSET -17.9452 -11.3132 6.19281
            CHANNELS 6 Xposition Yposition Zposition Zrotation Xrotation Yrotation
            JOINT Bip01_L_UpperArm
            {
              OFFSET 17.444 0 1.14441e-005
              CHANNELS 6 Xposition Yposition Zposition Zrotation Xrotation Yrotation
              JOINT Bip01_L_Forearm
              {
                OFFSET 30.6251 0 0
                CHANNELS 6 Xposition Yposition Zposition Zrotation Xrotation Yrotation
                JOINT Bip01_L_Hand
                {
                  OFFSET 31.204 0 0
                  CHANNELS 6 Xposition Yposition Zposition Zrotation Xrotation Yrotation
                  JOINT Bip01_L_Finger0
                  {
                    OFFSET 22.1039 0.255856 0.379024
                    CHANNELS 6 Xposition Yposition Zposition Zrotation Xrotation Yrotation
                    JOINT Bip01_L_Finger0Nub
                    {
                      OFFSET 12.0552 0 0
                      CHANNELS 6 Xposition Yposition Zposition Zrotation Xrotation Yrotation
                      End Site
                      {
                        OFFSET 0 0 0
                      }
                    }
                  }
                }
              }
            }
          }
          JOINT Bip01_Neck1
          {
            OFFSET 14.9359 -0.0106278 0
            CHANNELS 6 Xposition Yposition Zposition Zrotation Xrotation Yrotation
            JOINT Bip01_Head
            {
              OFFSET 14.3578 0.505501 0
              CHANNELS 6 Xposition Yposition Zposition Zrotation Xrotation Yrotation
              JOINT BN_Ear_L_01
              {
                OFFSET 3.76994 -2.35629 12.3444
                CHANNELS 6 Xposition Yposition Zposition Zrotation Xrotation Yrotation
                End Site
                {
                  OFFSET 0 0 0
                }
              }
              JOINT BN_Ear_R_01
              {
                OFFSET 3.76995 -2.35622 -12.3442
                CHANNELS 6 Xposition Yposition Zposition Zrotation Xrotation Yrotation
                End Site
                {
                  OFFSET 0 0 0
                }
              }
              JOINT BN_Mouth_01
              {
                OFFSET 11.8395 10.8645 1.27e-005
                CHANNELS 6 Xposition Yposition Zposition Zrotation Xrotation Yrotation
                JOINT BN_Tongue_01
                {
                  OFFSET 9.73752 3.21674 1.016e-005
                  CHANNELS 6 Xposition Yposition Zposition Zrotation Xrotation Yrotation
                  JOINT BN_Tongue_02
                  {
                    OFFSET 9.04304 0.053505 0
                    CHANNELS 6 Xposition Yposition Zposition Zrotation Xrotation Yrotation
                    End Site
                    {
                      OFFSET 0 0 0
                    }
                  }
                }
                JOINT BN_Beard_01
                {
                  OFFSET 6.93466 -0.751793 0
                  CHANNELS 6 Xposition Yposition Zposition Zrotation Xrotation Yrotation
                  JOINT BN_Beard_02
                  {
                    OFFSET 13.0965 1.52588e-005 0
                    CHANNELS 6 Xposition Yposition Zposition Zrotation Xrotation Yrotation
                    End Site
                    {
                      OFFSET 0 0 0
                    }
                  }
                }
              }
              JOINT Bip01_HeadNub
              {
                OFFSET 25.6158 0 0
                CHANNELS 6 Xposition Yposition Zposition Zrotation Xrotation Yrotation
                End Site
                {
                  OFFSET 0 0 0
                }
              }
            }
          }
        }
      }
    }
  }
}
MOTION
Frames:	4
Frame Time:	0.0333333
-43.3411 59.2349 1.37519 93.6159 -81.9825 -177.564 -3.8147e-006 4.76837e-007 -7.10543e-015 -92.9345 -22.518 -81.7382 -18.6385 -9.59102 -4.76837e-007 -50.0638 0.327621 179.941 20.9743 1.42109e-014 -0.00129747 22.7721 0.200622 9.55994 20.3015 -7.6294e-006 -0.000935078 7.73177 2.53046 16.9741 21.6394 1.42109e-014 -0.000849724 10.2956 5.51777 30.7497 20.0428 -9.10545 2.8725 -15.6317 8.37453 -1.21638 -22.181 0.421276 -19.7851 -73.0594 -6.85568 170.729 34.2647 -7.62939e-006 0 -54.7395 5.51693e-006 8.35951e-006 20.4429 3.8147e-006 -1.90735e-006 73.1282 -1.5222e-007 -1.29048e-007 16.5673 1.52588e-005 3.8147e-006 4.2264 6.5743 9.26744 9.18786 6.94841 -3.8147e-006 91.3394 -1.12716e-007 2.7188e-008 1.01909 4.44089e-016 3.8147e-006 -8.56051e-008 5.05942e-009 3.20246e-007 -21.4611 5.40493 14.0472 -122.852 14.376 -171.075 34.2647 -3.8147e-006 -1.90735e-006 -106.707 5.51505e-006 -1.76671e-005 20.4429 -1.90735e-006 0 110.353 -2.14176e-006 -9.3161e-006 16.5673 1.06581e-014 3.55271e-015 -29.0269 -5.25131 -4.2172 9.18784 6.94842 -3.8147e-006 89.9962 -1.2832e-006 -2.59881e-007 1.01907 0 7.10543e-015 -179.96 -0.000114973 7.14954e-005 39.331 -0.024189 -0.000957489 -14.367 2.20452 5.49386 34.2892 -15.5918 4.86374e-005 30.6637 -0.373277 -6.42843 -21.7193 -1.57146 -3.79508 145.252 -33.9749 121.481 17.4439 -3.8147e-006 0 42.1458 6.80991 -101.777 30.6251 -3.8147e-006 7.10542e-015 -21.6643 7.05265e-006 4.16319e-006 31.204 9.53676e-007 -1.90735e-006 -37.0105 82.3863 9.55121 22.1039 0.255852 -0.37903 -8.70663 9.65669 -42.2509 12.0552 -3.81471e-006 2.98023e-007 179.96 1.87965e-005 -3.59678e-006 -20.3324 -1.6518 8.51245 154.596 43.6801 -106.613 17.444 -7.6294e-006 3.8147e-006 39.6617 -48.7679 87.1648 30.6251 2.86103e-006 0 -63.1325 -8.12724e-006 -1.34694e-005 31.204 -7.62941e-006 0 -164.764 -73.5035 -163.118 22.1039 0.255851 0.379039 -10.7624 6.07328 10.0774 12.0552 0 3.81469e-006 -1.6142e-007 1.03261e-005 4.23305e-007 14.9354 -0.0106583 0.000169754 1.28798 -0.903701 1.44067 14.3578 0.505501 -4.76837e-007 -21.0984 -3.53519 1.6727 3.76991 -2.35628 12.3444 -172.201 32.7368 -81.1316 3.76995 -2.3562 -12.3442 5.88484 29.4885 114.375 11.8396 10.8645 0 -177.002 -3.76322 178.789 9.73752 3.21675 0 -2.85749 1.26532e-007 3.6323e-009 5.17481 0.535241 -0.159797 -9.73029 1.0564e-006 8.43322e-008 6.93467 -0.751786 -9.53675e-007 -85.1773 -2.85033 -1.72699 13.0966 3.05176e-005 2.38419e-007 -7.89265 -1.63549 -12.1212 25.6158 0 0 -6.59263e-008 1.08709e-006 -6.07726e-008 
-47.1827 60.6717 1.46814 90.678 -83.8981 -177.87 -3.8147e-006 4.76837e-007 0 -92.1523 -16.2975 -82.4958 -18.6385 -9.59102 -4.76837e-007 -50.4114 0.417388 179.886 20.9743 -5.11591e-013 -0.00129747 22.3773 0.262486 9.55656 20.3015 -7.6294e-006 -0.000935078 7.47498 2.48604 17.0491 21.6394 -4.40537e-013 -0.000849724 9.92401 5.40718 30.7555 20.9345 -6.85852 2.72548 -13.2056 7.13228 -1.94455 -22.6115 -0.583273 -19.1538 -80.1949 -7.28709 168.963 34.2647 -7.62939e-006 7.10543e-015 -64.4005 4.05653e-006 9.15599e-006 20.4429 3.8147e-006 -1.90735e-006 74.849 9.51522e-006 2.51714e-006 16.5673 1.52588e-005 3.8147e-006 4.29605 4.27102 9.84045 9.18786 6.94841 -3.80953e-006 91.4116 0.00515618 -0.392143 1.01909 3.95239e-014 3.8147e-006 -8.56051e-008 5.05942e-009 3.20246e-007 -21.4599 3.6656 14.7666 -126.272 12.7906 -171.208 34.2647 -3.8147e-006 -1.90735e-006 -101.602 3.70516e-006 -1.80814e-005 20.4429 -1.90735e-006 1.06581e-014 100.991 -1.39753e-006 -9.64229e-006 16.5673 3.55271e-015 -1.42109e-014 -29.7942 1.94721 -4.05816 9.18784 6.94842 -3.91325e-006 90.15 -0.0594715 2.99166 1.01907 2.39808e-014 0 -179.96 -0.000114972 7.14953e-005 39.3336 -0.0241709 -0.000957489 -8.79124 2.79754 3.81248 34.2892 -15.5918 4.86428e-005 27.3258 -0.784049 -6.321 -21.5857 -2.75672 -3.87726 148.293 -34.8222 121.44 17.4439 -3.8147e-006 -7.10542e-015 44.8428 4.21119 -102.728 30.6251 -3.8147e-006 1.42108e-014 -32.9962 6.73969e-007 1.26161e-005 31.204 9.53676e-007 -1.90735e-006 -29.8794 81.9779 6.34864 22.1039 0.255852 -0.37903 -8.7295 9.79673 -40.5371 12.0552 -3.81471e-006 2.98023e-007 179.96 1.87963e-005 -3.59637e-006 -20.2215 -2.92611 8.43188 158.007 42.7269 -107.268 17.444 -7.6294e-006 3.8147e-006 35.5014 -56.5802 81.9685 30.6251 2.86103e-006 -2.13163e-014 -58.6 -1.74909e-005 -8.07551e-006 31.204 -7.62941e-006 0 -167.316 -71.3849 -162.813 22.1039 0.255851 0.379039 -10.753 6.12026 11.4837 12.0552 3.55272e-015 3.81469e-006 -1.6142e-007 1.03261e-005 4.23305e-007 14.9354 -0.0106583 0.000169754 0.997244 -0.785306 1.23938 14.3578 0.505501 -4.78016e-007 -20.7168 -3.92602 2.75008 3.76991 -2.35628 12.3444 -171.673 31.55 -82.7214 3.76995 -2.3562 -12.3442 6.08899 28.0139 114.223 11.8396 10.8645 1.00889e-008 -177.002 -3.76325 178.789 9.73752 3.21675 1.58989e-009 -2.85749 1.33016e-007 5.04404e-009 5.17481 0.53524 -0.159797 -9.73029 1.08552e-006 8.80164e-008 6.93467 -0.751786 -9.54046e-007 -83.8585 -2.49068 -2.50442 13.0966 3.05176e-005 2.38419e-007 -7.88414 -1.63003 -12.7537 25.6158 -1.42109e-014 0 -6.59263e-008 1.08709e-006 -6.07726e-008 
-50.8861 62.298 1.55984 85.1815 -85.9866 179.662 -3.8147e-006 4.76837e-007 0 -91.2435 -9.5822 -83.3981 -18.6385 -9.59102 -4.76837e-007 -51.3091 0.670738 179.729 20.9743 -1.81899e-012 -0.00129747 21.3253 0.441792 9.55071 20.3015 -7.6294e-006 -0.000935078 6.76383 2.36651 17.2506 21.6394 -1.59162e-012 -0.000849724 8.90234 5.09888 30.7719 21.6253 -4.34236 2.48566 -10.7765 5.92955 -2.78921 -22.9791 -1.80404 -18.4096 -86.6286 -7.80494 167.076 34.2647 -7.62939e-006 1.42109e-014 -71.0262 2.99975e-006 9.54528e-006 20.4429 3.8147e-006 -1.90735e-006 73.9621 9.48428e-006 2.69355e-006 16.5673 1.52588e-005 3.8147e-006 4.67692 1.62022 10.3022 9.18786 6.94841 -3.80492e-006 91.4824 0.00973714 -0.776678 1.01909 6.30606e-014 3.8147e-006 -8.56051e-008 5.05942e-009 3.20246e-007 -21.3233 1.7315 15.5718 -128.541 11.1619 -171.704 34.2647 -3.8147e-006 -1.90735e-006 -94.8947 -8.49772e-006 -1.92533e-005 20.4429 -1.90735e-006 3.55271e-015 90.5266 -4.70833e-007 -9.99634e-006 16.5673 1.42109e-014 -7.10543e-015 -30.0961 8.73811 -4.1352 9.18784 6.94842 -3.93485e-006 89.5083 0.0156012 0.398204 1.01907 3.95795e-014 0 -179.96 -0.000114972 7.14948e-005 39.3361 -0.0241407 -0.000957489 -2.6051 3.33877 1.97278 34.2892 -15.5918 4.86463e-005 23.6285 -1.22316 -6.28638 -21.363 -4.05804 -3.96565 151.634 -35.8878 121.847 17.4439 -3.8147e-006 0 48.065 2.34368 -103.997 30.6251 -3.8147e-006 2.4869e-014 -41.9489 -1.74543e-006 1.25054e-005 31.204 9.53676e-007 -1.90735e-006 -23.836 81.6701 2.93035 22.1039 0.255852 -0.37903 -8.79958 10.1415 -38.8676 12.0552 -3.81471e-006 2.98023e-007 179.96 1.87962e-005 -3.59596e-006 -20.0069 -4.32244 8.34273 161.842 42.0843 -107.133 17.444 -7.6294e-006 3.8147e-006 28.25 -64.3447 72.0234 30.6251 2.86103e-006 -6.39488e-014 -60.0545 -1.77059e-005 -8.91824e-006 31.204 -7.62941e-006 0 -167.101 -68.9469 -169.025 22.1039 0.255851 0.379039 -10.7624 6.07328 10.0774 12.0552 -3.55272e-015 3.81469e-006 -1.6142e-007 1.03261e-005 4.23306e-007 14.9354 -0.0106583 0.000169754 0.53749 -0.656181 1.02779 14.3578 0.505501 -4.79006e-007 -20.3116 -4.33108 4.04976 3.76991 -2.35628 12.3444 -170.711 28.6194 -85.9659 3.76995 -2.3562 -12.3442 6.60269 24.4302 113.629 11.8396 10.8645 2.2189e-008 -177.002 -3.76328 178.789 9.73752 3.21675 3.57307e-009 -2.85749 1.38477e-007 6.80499e-009 5.17481 0.53524 -0.159797 -9.7303 1.11589e-006 9.30571e-008 6.93467 -0.751786 -9.5451e-007 -82.6577 -2.17476 -4.47895 13.0966 3.05176e-005 2.38419e-007 -7.8668 -1.62157 -14.3677 25.6158 -1.42109e-014 -1.33227e-015 -6.59263e-008 1.08709e-006 -6.07726e-008 
-54.61 63.9959 1.65257 70.3766 -88.093 168.019 -3.8147e-006 4.76837e-007 -7.10543e-015 -90.2027 -2.65431 -84.4153 -18.6385 -9.59102 -4.76837e-007 -52.6183 1.0844 179.472 20.9743 -4.07852e-012 -0.00129747 19.7221 0.721358 9.53762 20.3015 -7.6294e-006 -0.000935078 5.6303 2.17672 17.5428 21.6394 -3.55271e-012 -0.000849724 7.27066 4.60061 30.8059 22.0258 -1.68489 2.14779 -8.28967 4.80058 -3.68154 -23.2168 -3.11424 -17.6019 -92.7031 -8.29617 165.157 34.2647 -7.62939e-006 -7.10543e-015 -75.5065 2.2779e-006 9.7232e-006 20.4429 3.8147e-006 -1.90735e-006 71.3876 9.37291e-006 3.15188e-006 16.5673 1.52588e-005 3.8147e-006 5.0507 -1.35009 10.5697 9.18786 6.94841 -3.80102e-006 91.3759 0.0100778 -0.91145 1.01909 8.74855e-014 3.8147e-006 -8.56051e-008 5.05942e-009 3.20246e-007 -21.028 -0.251501 16.4127 -130.334 9.5623 -172.702 34.2647 -3.8147e-006 -1.90735e-006 -87.3171 -1.11816e-006 -1.84779e-005 20.4429 -1.90735e-006 0 78.4104 1.78443e-006 -1.00354e-005 16.5673 0 -1.06581e-014 -29.7747 11.9063 -4.01531 9.18784 6.94842 -3.93507e-006 89.9962 -1.25886e-008 1.32846e-006 1.01907 6.04517e-014 -3.55271e-015 -179.96 -0.000114972 7.14946e-005 39.3387 -0.024123 -0.000957489 3.83475 3.7036 0.0265121 34.2892 -15.5918 4.86479e-005 19.7272 -1.67894 -6.29694 -21.0395 -5.41356 -4.07174 155.165 -37.0947 122.523 17.4439 -3.8147e-006 -7.10542e-015 51.3185 0.522477 -105.289 30.6251 -3.8147e-006 4.97379e-014 -50.5333 3.77444e-006 5.6989e-006 31.204 9.53676e-007 -1.90735e-006 -17.531 81.6303 -0.83363 22.1039 0.255852 -0.37903 -8.90179 10.5915 -37.1941 12.0552 -3.81471e-006 2.98023e-007 179.96 1.87961e-005 -3.59568e-006 -19.6815 -5.77675 8.23392 165.961 41.9317 -105.51 17.444 -7.6294e-006 3.8147e-006 27.3825 -57.2463 67.3714 30.6251 2.86103e-006 4.26325e-014 -81.3017 -1.37827e-005 -1.26864e-005 31.204 -7.62941e-006 0 -159.085 -67.1956 -178.75 22.1039 0.255851 0.379039 -10.8393 5.82063 1.62903 12.0552 1.42109e-014 3.81469e-006 -1.6142e-007 1.03261e-005 4.23306e-007 14.9354 -0.0106583 0.000169754 0.00366619 -0.524564 0.800881 14.3578 0.505501 -4.79504e-007 -19.8427 -4.68234 5.42651 3.76991 -2.35628 12.3444 -169.91 24.7559 -89.1218 3.76995 -2.3562 -12.3442 7.25907 19.7312 112.334 11.8396 10.8645 3.73651e-008 -177.002 -3.76332 178.789 9.73752 3.21675 6.39124e-009 -2.85749 1.43745e-007 9.30737e-009 5.17481 0.53524 -0.159797 -9.7303 -5.44528e-007 9.97443e-006 6.93467 -0.751786 -9.55168e-007 -81.5629 -1.85745 -7.28558 13.0966 3.05176e-005 2.38419e-007 -7.80844 -1.59457 -16.8353 25.6158 -5.68435e-014 8.88179e-016 -6.59263e-008 1.08709e-006 -6.07726e-008 
